<svg width="297" height="59" viewBox="0 0 297 59" fill="none" xmlns="http://www.w3.org/2000/svg">
<path d="M121.793 29C121.793 31.6406 121.285 33.8789 120.27 35.7148C119.254 37.5508 117.879 38.9453 116.145 39.8984C114.418 40.8516 112.48 41.3281 110.332 41.3281C108.176 41.3281 106.234 40.8477 104.508 39.8867C102.781 38.9258 101.41 37.5312 100.395 35.7031C99.3867 33.8672 98.8828 31.6328 98.8828 29C98.8828 26.3594 99.3867 24.1211 100.395 22.2852C101.41 20.4492 102.781 19.0547 104.508 18.1016C106.234 17.1484 108.176 16.6719 110.332 16.6719C112.48 16.6719 114.418 17.1484 116.145 18.1016C117.879 19.0547 119.254 20.4492 120.27 22.2852C121.285 24.1211 121.793 26.3594 121.793 29ZM115.863 29C115.863 27.4375 115.641 26.1172 115.195 25.0391C114.758 23.9609 114.125 23.1445 113.297 22.5898C112.477 22.0352 111.488 21.7578 110.332 21.7578C109.184 21.7578 108.195 22.0352 107.367 22.5898C106.539 23.1445 105.902 23.9609 105.457 25.0391C105.02 26.1172 104.801 27.4375 104.801 29C104.801 30.5625 105.02 31.8828 105.457 32.9609C105.902 34.0391 106.539 34.8555 107.367 35.4102C108.195 35.9648 109.184 36.2422 110.332 36.2422C111.488 36.2422 112.477 35.9648 113.297 35.4102C114.125 34.8555 114.758 34.0391 115.195 32.9609C115.641 31.8828 115.863 30.5625 115.863 29ZM128.953 41H122.719L130.816 17H138.539L146.637 41H140.402L134.766 23.0469H134.578L128.953 41ZM128.121 31.5547H141.152V35.9609H128.121V31.5547ZM161.452 24.1953C161.374 23.3359 161.026 22.668 160.409 22.1914C159.8 21.707 158.929 21.4648 157.796 21.4648C157.046 21.4648 156.421 21.5625 155.921 21.7578C155.421 21.9531 155.046 22.2227 154.796 22.5664C154.546 22.9023 154.417 23.2891 154.409 23.7266C154.394 24.0859 154.464 24.4023 154.62 24.6758C154.784 24.9492 155.019 25.1914 155.323 25.4023C155.636 25.6055 156.011 25.7852 156.448 25.9414C156.886 26.0977 157.378 26.2344 157.925 26.3516L159.987 26.8203C161.175 27.0781 162.222 27.4219 163.128 27.8516C164.042 28.2812 164.808 28.793 165.425 29.3867C166.05 29.9805 166.522 30.6641 166.843 31.4375C167.163 32.2109 167.327 33.0781 167.335 34.0391C167.327 35.5547 166.944 36.8555 166.187 37.9414C165.429 39.0273 164.339 39.8594 162.917 40.4375C161.503 41.0156 159.796 41.3047 157.796 41.3047C155.788 41.3047 154.038 41.0039 152.546 40.4023C151.054 39.8008 149.894 38.8867 149.065 37.6602C148.237 36.4336 147.812 34.8828 147.788 33.0078H153.343C153.39 33.7812 153.597 34.4258 153.964 34.9414C154.331 35.457 154.835 35.8477 155.476 36.1133C156.124 36.3789 156.874 36.5117 157.726 36.5117C158.507 36.5117 159.171 36.4062 159.718 36.1953C160.272 35.9844 160.698 35.6914 160.995 35.3164C161.292 34.9414 161.444 34.5117 161.452 34.0273C161.444 33.5742 161.304 33.1875 161.03 32.8672C160.757 32.5391 160.335 32.2578 159.765 32.0234C159.202 31.7812 158.483 31.5586 157.608 31.3555L155.101 30.7695C153.022 30.293 151.386 29.5234 150.19 28.4609C148.995 27.3906 148.401 25.9453 148.409 24.125C148.401 22.6406 148.8 21.3398 149.604 20.2227C150.409 19.1055 151.522 18.2344 152.944 17.6094C154.366 16.9844 155.987 16.6719 157.808 16.6719C159.667 16.6719 161.28 16.9883 162.647 17.6211C164.022 18.2461 165.089 19.125 165.847 20.2578C166.604 21.3906 166.991 22.7031 167.007 24.1953H161.452ZM176.065 17V41H170.265V17H176.065ZM192.68 24.1953C192.602 23.3359 192.254 22.668 191.637 22.1914C191.027 21.707 190.156 21.4648 189.023 21.4648C188.273 21.4648 187.648 21.5625 187.148 21.7578C186.648 21.9531 186.273 22.2227 186.023 22.5664C185.773 22.9023 185.645 23.2891 185.637 23.7266C185.621 24.0859 185.691 24.4023 185.848 24.6758C186.012 24.9492 186.246 25.1914 186.551 25.4023C186.863 25.6055 187.238 25.7852 187.676 25.9414C188.113 26.0977 188.605 26.2344 189.152 26.3516L191.215 26.8203C192.402 27.0781 193.449 27.4219 194.355 27.8516C195.27 28.2812 196.035 28.793 196.652 29.3867C197.277 29.9805 197.75 30.6641 198.07 31.4375C198.391 32.2109 198.555 33.0781 198.563 34.0391C198.555 35.5547 198.172 36.8555 197.414 37.9414C196.656 39.0273 195.566 39.8594 194.145 40.4375C192.73 41.0156 191.023 41.3047 189.023 41.3047C187.016 41.3047 185.266 41.0039 183.773 40.4023C182.281 39.8008 181.121 38.8867 180.293 37.6602C179.465 36.4336 179.039 34.8828 179.016 33.0078H184.57C184.617 33.7812 184.824 34.4258 185.191 34.9414C185.559 35.457 186.063 35.8477 186.703 36.1133C187.352 36.3789 188.102 36.5117 188.953 36.5117C189.734 36.5117 190.398 36.4062 190.945 36.1953C191.5 35.9844 191.926 35.6914 192.223 35.3164C192.52 34.9414 192.672 34.5117 192.68 34.0273C192.672 33.5742 192.531 33.1875 192.258 32.8672C191.984 32.5391 191.563 32.2578 190.992 32.0234C190.43 31.7812 189.711 31.5586 188.836 31.3555L186.328 30.7695C184.25 30.293 182.613 29.5234 181.418 28.4609C180.223 27.3906 179.629 25.9453 179.637 24.125C179.629 22.6406 180.027 21.3398 180.832 20.2227C181.637 19.1055 182.75 18.2344 184.172 17.6094C185.594 16.9844 187.215 16.6719 189.035 16.6719C190.895 16.6719 192.508 16.9883 193.875 17.6211C195.25 18.2461 196.316 19.125 197.074 20.2578C197.832 21.3906 198.219 22.7031 198.234 24.1953H192.68Z" fill="black"/>
<path d="M21 9C21 4.58172 24.5817 1 29 1H71C75.4183 1 79 4.58172 79 9V51C79 55.4183 75.4183 59 71 59H29C24.5817 59 21 55.4183 21 51V9Z" fill="#121212"/>
<path d="M61.4492 30C61.4492 32.6406 60.9414 34.8789 59.9258 36.7148C58.9102 38.5508 57.5352 39.9453 55.8008 40.8984C54.0742 41.8516 52.1367 42.3281 49.9883 42.3281C47.832 42.3281 45.8906 41.8477 44.1641 40.8867C42.4375 39.9258 41.0664 38.5312 40.0508 36.7031C39.043 34.8672 38.5391 32.6328 38.5391 30C38.5391 27.3594 39.043 25.1211 40.0508 23.2852C41.0664 21.4492 42.4375 20.0547 44.1641 19.1016C45.8906 18.1484 47.832 17.6719 49.9883 17.6719C52.1367 17.6719 54.0742 18.1484 55.8008 19.1016C57.5352 20.0547 58.9102 21.4492 59.9258 23.2852C60.9414 25.1211 61.4492 27.3594 61.4492 30ZM55.5195 30C55.5195 28.4375 55.2969 27.1172 54.8516 26.0391C54.4141 24.9609 53.7813 24.1445 52.9531 23.5898C52.1328 23.0352 51.1445 22.7578 49.9883 22.7578C48.8398 22.7578 47.8516 23.0352 47.0234 23.5898C46.1953 24.1445 45.5586 24.9609 45.1133 26.0391C44.6758 27.1172 44.457 28.4375 44.457 30C44.457 31.5625 44.6758 32.8828 45.1133 33.9609C45.5586 35.0391 46.1953 35.8555 47.0234 36.4102C47.8516 36.9648 48.8398 37.2422 49.9883 37.2422C51.1445 37.2422 52.1328 36.9648 52.9531 36.4102C53.7813 35.8555 54.4141 35.0391 54.8516 33.9609C55.2969 32.8828 55.5195 31.5625 55.5195 30Z" fill="white"/>
<path d="M43.4569 27.7734L56.2348 30.0592L44.7583 25.6388L43.4569 27.7734Z" fill="white"/>
</svg>
