<svg width="578" height="469" viewBox="0 0 578 469" fill="none" xmlns="http://www.w3.org/2000/svg">
<path d="M425.548 374.659C425.284 374.689 425.018 374.664 424.749 374.583C424.633 374.545 424.528 374.481 424.442 374.396C424.356 374.312 424.292 374.209 424.254 374.096C423.123 370.778 422.156 366.456 421.355 361.13C418.438 341.731 412.097 323.197 402.331 305.528C394.068 290.575 383.666 280.196 367.344 274.033C355.544 269.574 343.699 265.236 331.808 261.021C323.453 258.053 321.505 246.639 320.47 238.786C320.464 238.74 320.468 238.694 320.483 238.65C320.497 238.606 320.522 238.566 320.554 238.533C320.586 238.5 320.626 238.475 320.669 238.46C320.712 238.444 320.759 238.439 320.805 238.444C326.162 238.986 331.524 239.096 336.891 238.771C346.144 238.208 350.717 234.997 351.044 225.333C351.318 217.089 350.57 208.932 348.8 200.861C348.307 198.614 348.046 196.486 348.016 194.477C347.874 184.965 347.524 175.448 346.966 165.926C346.951 165.68 347.02 165.434 347.163 165.226C354.354 154.634 362.679 141.698 358.859 128.336C355.267 115.75 340.193 108.377 328.718 105.211C310.829 100.28 296.097 103.826 281.563 114.959C278.509 117.297 275.739 119.933 273.254 122.865C273.15 122.987 273.023 123.087 272.879 123.158C272.735 123.229 272.577 123.269 272.417 123.276C250.867 124.098 246.096 142.588 250.098 160.25" stroke="#006A81" stroke-width="2"/>
<path d="M250.098 160.25C237.944 163.801 227.902 170.69 219.973 180.917C219.344 181.729 218.514 182.122 217.485 182.096C204.328 181.762 190.943 190.208 182.687 200.131C173.19 211.545 172.064 228.59 176.013 242.309C177.68 248.108 181.234 253.655 184.445 259.027C188.062 265.064 190.887 272.526 192.921 281.414" stroke="#124050" stroke-width="2"/>
<path d="M192.921 281.414C191.075 282.099 189.677 282.743 188.729 283.347C159.547 302.073 141.383 331.575 130.753 363.953C130.743 363.993 130.476 365.006 129.954 366.989C129.467 368.869 128.234 370.794 128.326 372.863C128.34 373.111 128.279 373.356 128.151 373.564C127.572 374.522 127.286 375.575 127.291 376.721" stroke="#006A81" stroke-width="2"/>
<path d="M127.291 376.722L123.958 385.1C123.44 386.403 123.833 386.796 125.137 386.279L228.663 345.371C228.845 345.301 229.006 345.186 229.133 345.036C229.259 344.886 229.346 344.705 229.386 344.511L232.429 329.163" stroke="#594352" stroke-width="2"/>
<path d="M232.429 329.163L232.658 328.843C232.764 328.691 232.833 328.526 232.863 328.348C234.674 318.36 236.977 308.493 239.772 298.748" stroke="#527792" stroke-width="2"/>
<path d="M239.772 298.748L243.653 288.643" stroke="#124050" stroke-width="2"/>
<path d="M243.653 288.643L253.066 266.789C253.084 266.748 253.092 266.703 253.09 266.658C253.088 266.613 253.075 266.569 253.053 266.53C253.031 266.491 253 266.457 252.963 266.432C252.925 266.407 252.882 266.391 252.838 266.385C249.348 265.909 246.025 266.429 242.869 267.945C242.749 268.003 242.616 268.027 242.483 268.015C242.351 268.003 242.224 267.955 242.116 267.877L241.888 267.717C241.299 267.306 241.335 266.959 241.994 266.675C245.657 265.102 249.492 264.547 253.5 265.008C253.615 265.022 253.731 264.998 253.832 264.94C253.933 264.883 254.014 264.795 254.063 264.689L257.343 257.224C257.395 257.103 257.48 256.999 257.589 256.924C257.698 256.848 257.826 256.805 257.959 256.798C258.689 256.757 259.374 257.097 260.013 257.817" stroke="#527792" stroke-width="2"/>
<path d="M260.013 257.817C258.476 264.235 256.736 270.535 254.793 276.719C252.549 283.872 250.327 290.85 248.493 298.124C248.464 298.236 248.474 298.354 248.519 298.461C248.564 298.569 248.643 298.658 248.744 298.718C249.269 299.03 251.742 296.884 252.845 295.872" stroke="#006A81" stroke-width="2"/>
<path d="M252.845 295.872C255.684 293.802 264.868 286.292 268.346 288.613C269.061 289.084 269.665 289.665 270.157 290.355" stroke="#124050" stroke-width="2"/>
<path d="M270.157 290.355L270.796 292.371C270.837 292.5 270.832 292.638 270.782 292.762C270.732 292.886 270.64 292.987 270.522 293.049C268.746 293.972 267.202 294.883 265.888 295.78C265.568 295.994 257.495 302.827 257.495 303.07C257.5 303.375 257.632 303.446 257.89 303.283C262.296 300.536 266.793 296.983 271.998 296.115C272.243 296.076 272.493 296.128 272.698 296.26L274.76 297.553" stroke="#006A81" stroke-width="2"/>
<path d="M274.76 297.554L276.998 301.998" stroke="#124050" stroke-width="2"/>
<path d="M276.998 301.998C275.4 303.068 273.7 303.928 271.899 304.577C268.848 305.673 266.664 307.309 263.795 308.572C263.755 308.59 263.72 308.619 263.696 308.657C263.671 308.695 263.658 308.739 263.658 308.785V308.983C263.658 309.01 263.663 309.036 263.674 309.061C263.685 309.085 263.702 309.107 263.722 309.124C263.742 309.142 263.766 309.154 263.792 309.162C263.818 309.169 263.845 309.17 263.871 309.166C268.498 308.298 273.063 306.434 278.847 307.096" stroke="#006A81" stroke-width="2"/>
<path d="M278.847 307.096C280.12 310.672 281.018 314.363 281.54 318.167C281.559 318.294 281.547 318.423 281.505 318.544C281.462 318.665 281.391 318.773 281.297 318.86C279.166 320.838 277.363 323.083 275.887 325.594C275.859 325.639 275.822 325.678 275.778 325.707C275.735 325.737 275.685 325.756 275.633 325.764C275.582 325.772 275.529 325.769 275.48 325.754C275.43 325.739 275.384 325.713 275.346 325.678C273.87 324.339 272.754 322.774 271.998 320.983" stroke="#124050" stroke-width="2"/>
<path d="M271.998 320.983C271.275 319.088 273.155 317.703 272.972 317.361C272.949 317.315 272.917 317.274 272.877 317.241C272.838 317.209 272.792 317.184 272.743 317.17C272.693 317.156 272.642 317.152 272.591 317.158C272.54 317.165 272.491 317.182 272.447 317.208C271.65 317.68 270.94 318.251 270.316 318.921C268.505 320.861 264.663 323.014 265.72 326.309" stroke="#006A81" stroke-width="2"/>
<path d="M265.72 326.31C266.633 337.343 266.436 349.571 260.767 359.357C258.255 363.702 254.778 365.536 249.413 368.625" stroke="#594352" stroke-width="2"/>
<path d="M249.413 368.625C246.892 367.077 244.211 366.966 241.37 368.29C234.096 371.676 228.457 376.546 221.913 380.708C212.713 386.568 205.211 393.249 196.33 398.666C194.479 399.798 192.713 401.051 191.034 402.426" stroke="#006A81" stroke-width="2"/>
<path d="M191.034 402.426C174.973 412.328 158.646 421.769 142.053 430.748" stroke="#594352" stroke-width="2"/>
<path d="M256.696 284.252C257.781 280.656 259.057 277.133 260.523 273.683C262.836 268.23 262.666 262.941 260.013 257.817" stroke="#526B81" stroke-width="2"/>
<path d="M243.653 288.643L239.346 287.988C239.301 287.981 239.254 287.985 239.21 287.998C239.166 288.012 239.125 288.035 239.092 288.067C239.058 288.098 239.032 288.137 239.015 288.18C238.999 288.223 238.992 288.27 238.996 288.316L239.772 298.748" stroke="#634150" stroke-width="2"/>
<path d="M232.429 329.163C224.105 329.64 216.429 327.235 209.403 321.949C205.88 319.294 197.875 313.199 197.046 310.14" stroke="#AA4452" stroke-width="2"/>
<path d="M375.136 429.066C371.453 430.253 368.47 433.404 364.581 434.895C363.638 435.26 363.501 435.062 364.171 434.302C364.592 433.815 365.051 433.107 365.548 432.179C383.483 398.72 384.008 356.222 355.694 328.052C348.921 321.31 340.475 315.687 331.42 310.885C310.623 299.867 298.981 273.067 297.299 250.703C296.531 240.544 299.574 232.311 302.162 222.989C307.564 203.517 305.517 180.856 288.685 167.631C277.736 159.025 264.023 157.168 250.098 160.25" stroke="#12343F" stroke-width="2"/>
<path d="M191.034 402.426C192.404 401.596 194.078 401.041 195.296 400.333C213.35 389.787 231.389 379.217 249.413 368.625" stroke="#593641" stroke-width="2"/>
<path d="M195.745 310.74C163.313 322.23 141.132 345.667 127.291 376.721" stroke="#593641" stroke-width="2"/>
<path d="M266.322 324.438C265.677 324.843 265.477 325.467 265.72 326.309" stroke="#593641" stroke-width="2"/>
<path d="M322.821 456.78L323.742 455.273C323.865 455.076 323.916 454.839 323.887 454.603C319.534 421.252 310.212 388.645 293.753 359.182C286.606 346.388 277.515 335.19 266.481 325.587C266.096 325.252 266.043 324.869 266.322 324.438" stroke="#6A0D10" stroke-width="2"/>
<path d="M266.322 324.438L271.29 321.127C271.435 321.033 271.604 320.983 271.777 320.983H271.998" stroke="#12343F" stroke-width="2"/>
<path d="M278.846 307.096L276.997 301.998" stroke="#12343F" stroke-width="2"/>
<path d="M274.76 297.553C273.654 294.865 272.12 292.465 270.157 290.355" stroke="#12343F" stroke-width="2"/>
<path d="M252.845 295.872C253.713 292.44 254.763 287.144 256.696 284.252" stroke="#12343F" stroke-width="2"/>
<path d="M256.696 284.252C269.883 270.578 270.887 245.117 268.254 227.585C268.237 227.48 268.184 227.384 268.105 227.313C268.026 227.242 267.926 227.202 267.821 227.197C265.469 227.106 259.359 226.299 258.225 223.857C257.114 221.452 259.58 218.089 262.136 218.835C263.298 219.175 264.505 219.454 265.759 219.672C265.799 219.678 265.84 219.675 265.878 219.661C265.917 219.648 265.951 219.625 265.979 219.594C266.006 219.564 266.025 219.527 266.034 219.488C266.044 219.448 266.043 219.407 266.032 219.367C263.05 208.783 255.029 199.53 243.303 199.423C222.59 199.241 212.074 218.043 209.989 236.108C209.986 236.149 209.971 236.188 209.948 236.221C209.925 236.255 209.893 236.281 209.856 236.299C209.82 236.317 209.779 236.325 209.738 236.322C209.697 236.319 209.658 236.306 209.624 236.283C204.99 233.315 197.715 230.69 195.6 238.277C192.272 250.193 196.303 257.691 207.691 260.77C207.795 260.797 207.886 260.86 207.949 260.947C208.013 261.034 208.045 261.141 208.041 261.249C207.493 278.259 203.828 294.556 197.046 310.14" stroke="#634150" stroke-width="2"/>
<path d="M197.046 310.14L195.745 310.741" stroke="#6A0D10" stroke-width="2"/>
<path d="M195.745 310.741C195.308 310.406 195.108 309.952 195.143 309.379C195.701 299.948 194.961 290.626 192.921 281.414" stroke="#12343F" stroke-width="2"/>
<path d="M236.029 220.999C235.918 220.588 235.726 220.204 235.466 219.867C235.206 219.53 234.882 219.248 234.512 219.036C234.143 218.825 233.735 218.688 233.313 218.634C232.891 218.58 232.462 218.609 232.051 218.721L225.281 220.56C224.87 220.672 224.485 220.863 224.148 221.124C223.812 221.384 223.529 221.708 223.318 222.078C223.106 222.447 222.969 222.854 222.915 223.277C222.861 223.699 222.891 224.128 223.003 224.538L223.122 224.979C223.234 225.39 223.425 225.775 223.686 226.111C223.946 226.448 224.27 226.731 224.639 226.942C225.009 227.154 225.416 227.29 225.839 227.344C226.261 227.399 226.69 227.369 227.1 227.257L233.871 225.418C234.282 225.306 234.666 225.115 235.003 224.854C235.34 224.594 235.622 224.27 235.834 223.901C236.045 223.531 236.182 223.124 236.236 222.702C236.29 222.279 236.261 221.851 236.149 221.44L236.029 220.999Z" stroke="#634150" stroke-width="2"/>
<path d="M234.461 235.499C234.461 234.593 234.101 233.724 233.46 233.083C232.82 232.443 231.951 232.083 231.044 232.083C230.138 232.083 229.269 232.443 228.629 233.083C227.988 233.724 227.628 234.593 227.628 235.499C227.628 236.405 227.988 237.274 228.629 237.915C229.269 238.556 230.138 238.916 231.044 238.916C231.951 238.916 232.82 238.556 233.46 237.915C234.101 237.274 234.461 236.405 234.461 235.499Z" stroke="#634150" stroke-width="2"/>
<path d="M264.45 235.743C264.45 234.834 264.089 233.963 263.447 233.321C262.805 232.679 261.934 232.318 261.025 232.318C260.117 232.318 259.246 232.679 258.604 233.321C257.962 233.963 257.601 234.834 257.601 235.743C257.601 236.651 257.962 237.522 258.604 238.164C259.246 238.806 260.117 239.167 261.025 239.167C261.934 239.167 262.805 238.806 263.447 238.164C264.089 237.522 264.45 236.651 264.45 235.743Z" stroke="#634150" stroke-width="2"/>
<path d="M425.547 374.659C412.327 396.117 395.523 414.253 375.135 429.066C371.452 430.253 368.47 433.403 364.581 434.895C363.638 435.26 363.501 435.062 364.17 434.301C364.591 433.814 365.05 433.107 365.548 432.178C383.483 398.72 384.008 356.221 355.693 328.052C348.921 321.31 340.475 315.686 331.42 310.885C310.623 299.866 298.981 273.066 297.299 250.702C296.531 240.544 299.574 232.31 302.162 222.989C307.564 203.517 305.517 180.856 288.685 167.631C277.735 159.025 264.023 157.168 250.098 160.25C246.096 142.588 250.867 124.098 272.417 123.276C272.577 123.269 272.735 123.229 272.879 123.158C273.023 123.087 273.15 122.987 273.254 122.865C275.739 119.933 278.509 117.297 281.563 114.959C296.097 103.826 310.829 100.28 328.718 105.211C340.193 108.377 355.267 115.75 358.859 128.336C362.679 141.698 354.354 154.634 347.163 165.226C347.02 165.434 346.951 165.68 346.965 165.926C347.524 175.448 347.874 184.965 348.016 194.477C348.046 196.486 348.307 198.614 348.799 200.861C350.57 208.932 351.318 217.089 351.044 225.333C350.717 234.997 346.144 238.208 336.891 238.771C331.524 239.096 326.161 238.986 320.804 238.444C320.759 238.439 320.712 238.444 320.669 238.46C320.625 238.475 320.586 238.5 320.554 238.533C320.522 238.566 320.497 238.606 320.483 238.65C320.468 238.694 320.464 238.74 320.47 238.786C321.505 246.639 323.453 258.053 331.808 261.021C343.699 265.236 355.544 269.574 367.343 274.033C383.666 280.196 394.068 290.575 402.331 305.528C412.097 323.197 418.438 341.731 421.355 361.13C422.156 366.456 423.123 370.778 424.254 374.096C424.291 374.209 424.356 374.312 424.442 374.396C424.528 374.481 424.633 374.545 424.749 374.583C425.017 374.664 425.284 374.689 425.547 374.659Z" fill="white"/>
<path d="M375.136 429.066C370.973 432.14 365.761 435.344 362.215 437.665C349.923 445.705 336.792 452.077 322.821 456.78L323.742 455.273C323.865 455.076 323.916 454.839 323.886 454.603C319.534 421.251 310.212 388.645 293.753 359.182C286.606 346.388 277.515 335.189 266.481 325.586C266.096 325.252 266.042 324.869 266.321 324.437L271.29 321.127C271.434 321.033 271.604 320.983 271.777 320.983H271.998C272.754 322.774 273.87 324.339 275.346 325.678C275.384 325.713 275.43 325.739 275.479 325.754C275.529 325.768 275.582 325.772 275.633 325.764C275.685 325.756 275.735 325.737 275.778 325.707C275.822 325.678 275.859 325.639 275.886 325.594C277.363 323.083 279.166 320.838 281.297 318.86C281.391 318.773 281.462 318.665 281.505 318.544C281.547 318.423 281.559 318.294 281.54 318.167C281.018 314.363 280.12 310.672 278.847 307.096L276.997 301.997L274.76 297.554C273.654 294.865 272.12 292.465 270.157 290.355C269.665 289.665 269.061 289.084 268.346 288.613C264.868 286.292 255.684 293.802 252.845 295.872C253.713 292.44 254.763 287.144 256.696 284.252C269.883 270.578 270.887 245.117 268.254 227.585C268.237 227.48 268.184 227.384 268.105 227.313C268.026 227.242 267.926 227.201 267.821 227.197C265.469 227.106 259.359 226.299 258.225 223.857C257.114 221.452 259.58 218.089 262.136 218.835C263.298 219.174 264.505 219.453 265.758 219.672C265.799 219.678 265.84 219.674 265.878 219.661C265.917 219.647 265.951 219.624 265.978 219.594C266.006 219.564 266.025 219.527 266.034 219.488C266.044 219.448 266.043 219.407 266.032 219.367C263.049 208.783 255.029 199.53 243.303 199.423C222.59 199.24 212.074 218.043 209.989 236.108C209.986 236.148 209.971 236.187 209.948 236.221C209.925 236.254 209.893 236.281 209.856 236.299C209.82 236.317 209.779 236.324 209.738 236.322C209.697 236.319 209.658 236.305 209.624 236.283C204.99 233.315 197.715 230.69 195.6 238.277C192.272 250.193 196.303 257.691 207.691 260.77C207.795 260.797 207.886 260.86 207.949 260.947C208.013 261.034 208.045 261.141 208.041 261.249C207.493 278.259 203.828 294.555 197.046 310.139L195.745 310.741C195.308 310.406 195.108 309.952 195.143 309.378C195.701 299.948 194.961 290.626 192.921 281.414C190.887 272.526 188.062 265.064 184.445 259.027C181.233 253.655 177.68 248.108 176.013 242.309C172.064 228.59 173.19 211.545 182.687 200.131C190.943 190.208 204.328 181.762 217.485 182.096C218.514 182.122 219.344 181.729 219.973 180.917C227.902 170.69 237.944 163.801 250.098 160.25C264.023 157.168 277.736 159.025 288.685 167.631C305.517 180.856 307.564 203.517 302.162 222.989C299.574 232.311 296.531 240.544 297.299 250.703C298.981 273.067 310.623 299.867 331.42 310.885C340.475 315.687 348.921 321.31 355.694 328.052C384.008 356.222 383.483 398.72 365.548 432.179C365.051 433.107 364.592 433.815 364.171 434.302C363.501 435.062 363.638 435.26 364.581 434.895C368.47 433.404 371.453 430.253 375.136 429.066Z" fill="#230A0E"/>
<path d="M289.461 64.8997C289.14 64.8786 288.838 64.7402 288.612 64.5107C288.386 64.2812 288.251 63.9764 288.233 63.6538C288.119 61.4646 288.516 58.806 288.643 57.1353C289.8 41.8919 290.831 26.7506 291.737 11.7116C291.757 11.3669 291.912 11.0439 292.168 10.8121C292.423 10.5804 292.76 10.4584 293.105 10.4726C302.893 10.8804 312.661 11.5615 322.409 12.5161C322.558 12.5311 322.696 12.6031 322.794 12.717C322.893 12.831 322.943 12.9783 322.935 13.1285L322.465 21.594C322.4 22.7288 321.8 23.2586 320.666 23.1834L304.958 22.0791C303.951 22.0084 303.417 22.477 303.356 23.485L302.84 32.1546C302.833 32.2574 302.847 32.3604 302.88 32.4579C302.914 32.5554 302.966 32.6454 303.034 32.7227C303.102 32.8 303.184 32.8632 303.277 32.9086C303.369 32.954 303.47 32.9807 303.572 32.9873L319.895 34.1207C320.007 34.1274 320.116 34.1567 320.217 34.2069C320.317 34.257 320.406 34.327 320.479 34.4126C320.552 34.4982 320.607 34.5977 320.642 34.7053C320.676 34.8129 320.688 34.9263 320.678 35.0389L320.011 43.2387C319.929 44.2815 319.364 44.7694 318.315 44.7023L303.093 43.6682C302.945 43.658 302.797 43.6773 302.657 43.725C302.517 43.7728 302.388 43.848 302.278 43.9462C302.167 44.0445 302.077 44.1638 302.014 44.2973C301.95 44.4307 301.913 44.5755 301.906 44.7232L301.431 54.1936C301.424 54.3201 301.467 54.4441 301.551 54.5394C301.634 54.6347 301.751 54.6938 301.878 54.7041L318.998 55.8959C319.129 55.9054 319.256 55.9405 319.373 55.9993C319.49 56.0581 319.595 56.1394 319.68 56.2386C319.766 56.3377 319.831 56.4528 319.872 56.5772C319.913 56.7016 319.93 56.8329 319.92 56.9636L319.27 65.5371C319.244 65.8829 319.083 66.2045 318.821 66.4321C318.56 66.6596 318.219 66.7746 317.873 66.7522L289.461 64.8997Z" fill="white"/>
<path d="M251.88 46.3184C251.805 47.1685 251.761 48.2025 251.919 49.1293C252.547 52.7908 253.129 58.0977 253.662 65.0502C253.796 66.7553 253.131 67.6331 251.667 67.6835C248.75 67.7897 245.702 67.9269 242.523 68.0951C242.281 68.1065 242.043 68.0246 241.86 67.8664C241.677 67.7083 241.562 67.4861 241.54 67.2461L236.469 15.3698C236.359 14.2899 236.849 13.7207 237.937 13.6622L247.456 13.1952C248.401 13.147 248.914 13.5964 248.992 14.5432L250.453 32.6623C250.56 33.9756 251.268 34.5638 252.577 34.4268L267.386 32.9186C267.542 32.9031 267.686 32.8288 267.789 32.7108C267.892 32.5927 267.946 32.4398 267.941 32.2832C267.765 25.399 267.161 18.5532 266.13 11.7458C266.12 11.6823 266.124 11.6174 266.14 11.5552C266.156 11.4931 266.185 11.4348 266.225 11.3842C266.264 11.3335 266.314 11.2915 266.37 11.2606C266.426 11.2298 266.489 11.2108 266.553 11.2048L277.77 10.0584C277.955 10.039 278.141 10.0942 278.286 10.2118C278.432 10.3295 278.526 10.5003 278.548 10.6871C279.374 17.5584 280.029 24.4415 280.514 31.3365C280.757 34.855 281.503 38.7795 281.759 42.565C282.212 49.2303 282.864 55.9027 283.717 62.5821C283.881 63.8568 283.322 64.5377 282.039 64.6249L273.017 65.2616C272 65.3378 271.442 64.8665 271.346 63.848L269.493 44.5198C269.472 44.2985 269.365 44.0944 269.195 43.9516C269.025 43.8088 268.805 43.7389 268.583 43.7571L253.166 45.0384C252.835 45.0659 252.525 45.2094 252.289 45.4437C252.054 45.6779 251.909 45.9877 251.88 46.3184Z" fill="white"/>
<path d="M192.026 35.4115L189.775 27.0488C189.706 26.7879 189.743 26.5102 189.878 26.2766C190.013 26.043 190.236 25.8725 190.496 25.8025L225.44 16.3403C225.698 16.2699 225.973 16.3037 226.206 16.4344C226.44 16.565 226.612 16.782 226.687 17.0386L229.145 25.5912C229.182 25.723 229.193 25.8609 229.176 25.9967C229.159 26.1326 229.114 26.2637 229.046 26.3821C228.977 26.5005 228.885 26.6038 228.775 26.6859C228.666 26.768 228.541 26.8272 228.408 26.8599L217.663 29.5075C217.532 29.5404 217.409 29.5991 217.3 29.6802C217.192 29.7613 217.101 29.8631 217.032 29.9798C216.964 30.0965 216.919 30.2256 216.901 30.3597C216.883 30.4938 216.891 30.6302 216.927 30.7609L227.979 71.1737C228.015 71.3044 228.023 71.4408 228.005 71.5749C227.987 71.709 227.942 71.8381 227.874 71.9548C227.805 72.0714 227.714 72.1733 227.606 72.2544C227.497 72.3355 227.374 72.3942 227.243 72.4271L217.19 74.8933C216.931 74.958 216.657 74.9188 216.427 74.7841C216.197 74.6494 216.029 74.4299 215.959 74.1726L205.074 33.9484C205.04 33.8185 204.98 33.6967 204.898 33.59C204.816 33.4833 204.714 33.3939 204.598 33.3268C204.481 33.2597 204.352 33.2164 204.219 33.1993C204.086 33.1821 203.95 33.1916 203.82 33.227L193.288 36.1332C193.158 36.1697 193.021 36.18 192.887 36.1635C192.753 36.1469 192.623 36.1037 192.506 36.0366C192.388 35.9694 192.286 35.8795 192.203 35.7722C192.121 35.6649 192.061 35.5423 192.026 35.4115Z" fill="white"/>
<path d="M365.384 40.7947C372.647 47.7944 384.73 55.2364 379.677 67.3718C372.038 85.7365 347.904 75.2087 339.311 64.4318C339.091 64.1592 338.985 63.8131 339.012 63.4644C339.04 63.1156 339.2 62.7907 339.46 62.5563L346.741 55.9656C346.807 55.9058 346.885 55.86 346.97 55.8308C347.054 55.8017 347.144 55.7897 347.233 55.7956C347.322 55.8016 347.409 55.8253 347.489 55.8655C347.569 55.9057 347.64 55.9614 347.698 56.0295C351.531 60.5109 355.933 65.7127 362.268 65.6979C364.045 65.694 365.427 65.1509 366.414 64.0686C369.722 60.4685 366.362 56.6279 363.139 53.8581C360.616 51.6888 358.261 49.3503 356.074 46.8425C348.629 38.3137 352.285 26.495 362.963 23.137C372.04 20.279 380.411 24.325 387.051 30.3968C388.325 31.558 388.362 32.7573 387.162 33.9945L382.059 39.2679C381.956 39.3731 381.834 39.4562 381.698 39.5123C381.563 39.5684 381.417 39.5962 381.271 39.5939C381.125 39.5917 380.981 39.5594 380.848 39.4992C380.715 39.439 380.596 39.3521 380.499 39.2439C378.075 36.5603 375.171 34.5961 371.789 33.3511C370.611 32.9191 369.402 32.7982 368.162 32.9884C365.631 33.372 364.263 34.804 364.06 37.2841C363.946 38.6659 364.387 39.8361 365.384 40.7947Z" fill="white"/>
<path d="M410.472 37.474L401.156 33.4426C400.659 33.2273 400.081 33.4561 399.866 33.9536L379.104 81.9305C378.889 82.4281 379.118 83.006 379.615 83.2213L388.931 87.2527C389.429 87.468 390.007 87.2392 390.222 86.7416L410.983 38.7647C411.199 38.2672 410.97 37.6893 410.472 37.474Z" fill="white"/>
<path d="M396.251 90.2979C396.118 90.2231 396.001 90.1228 395.907 90.0029C395.813 89.8829 395.743 89.7458 395.703 89.5992C395.662 89.4527 395.65 89.2998 395.669 89.1491C395.688 88.9985 395.736 88.8532 395.811 88.7217L421.403 43.5734C421.481 43.436 421.586 43.3153 421.71 43.2186C421.835 43.1219 421.978 43.0511 422.13 43.0103C422.281 42.9694 422.439 42.9595 422.594 42.981C422.749 43.0025 422.898 43.055 423.032 43.1354L431.431 48.1342C431.605 48.2367 431.74 48.3962 431.811 48.5858C431.882 48.7754 431.885 48.9837 431.821 49.1757C431.227 50.9214 430.202 52.3551 429.424 53.7137C423.466 64.1399 417.552 74.631 411.681 85.1871C411.209 86.0336 411.394 86.7 412.235 87.1862L426.281 95.3211C426.534 95.4675 426.719 95.7078 426.796 95.9899C426.873 96.2719 426.836 96.573 426.692 96.8278L422.609 104.086C422.552 104.187 422.475 104.276 422.383 104.348C422.292 104.419 422.187 104.472 422.074 104.502C421.962 104.533 421.845 104.541 421.73 104.527C421.614 104.512 421.503 104.475 421.402 104.417L396.251 90.2979Z" fill="white"/>
<path d="M143.716 70.4922C144.031 71.0616 144.291 71.0377 144.495 70.4204C146.324 64.9185 147.369 57.912 148.244 53.7625C148.907 50.6334 149.502 47.6213 150.03 44.7261C150.199 43.8081 150.692 43.1223 151.51 42.6687L162.295 36.68C162.349 36.6492 162.409 36.6302 162.471 36.6244C162.533 36.6185 162.596 36.6258 162.655 36.6459C162.714 36.6659 162.768 36.6982 162.814 36.7406C162.859 36.7831 162.895 36.8347 162.919 36.8921L163.088 37.3016C163.333 37.875 163.362 38.5196 163.169 39.1165C161.179 45.2981 160.037 52.72 158.893 57.7966C158.214 60.8033 157.511 63.9259 156.784 67.1644C156.501 68.4337 156.968 69.2951 158.186 69.7488C168.418 73.5527 179.066 77.3915 190.128 81.265C190.665 81.4563 190.986 81.6249 191.093 81.7707C191.163 81.8655 191.211 81.9741 191.236 82.0892C191.261 82.2044 191.261 82.3235 191.236 82.4386C191.211 82.5537 191.162 82.6621 191.092 82.7568C191.022 82.8514 190.932 82.93 190.829 82.9874L178.897 89.5528C178.131 89.9778 177.337 90.0364 176.516 89.7285L149.886 79.7836C148.914 79.4197 148.682 79.6908 149.188 80.5967L158.846 97.9285C159.606 99.2849 159.291 100.315 157.901 101.017C155.095 102.437 152.105 103.99 148.929 105.676C146.105 107.176 143.865 109.39 141.366 111.396C140.494 112.102 139.57 112.176 138.595 111.619L130.996 107.273C130.686 107.097 130.33 107.02 129.975 107.052C129.62 107.085 129.283 107.225 129.01 107.455L115.305 118.999C114.243 119.891 113.956 120.987 114.444 122.288L117.069 129.309C117.575 130.667 117.256 131.792 116.114 132.687C113.687 134.589 110.63 136.66 108.779 139.511C108.264 140.301 107.739 141.011 107.205 141.642C102.192 147.532 97.2064 153.445 92.248 159.378C90.7381 161.191 88.81 162.547 87.457 164.662C85.5186 167.696 83.5977 170.738 81.6943 173.788C81.5635 173.996 81.3714 174.157 81.1453 174.249C78.4351 175.327 54.4995 177.209 54.5614 178.269C54.5688 178.394 54.606 178.515 54.6699 178.622C54.7337 178.729 54.8224 178.819 54.9283 178.884L70.8461 188.348C71.9898 189.027 72.207 189.931 71.4976 191.058L67.0562 198.106C66.535 198.931 65.8568 199.09 65.0218 198.583L20.9932 171.889C20.7997 171.773 20.6596 171.586 20.6032 171.367C20.5467 171.149 20.5784 170.917 20.6914 170.721C23.6872 165.461 26.8143 160.293 30.0726 155.219C34.694 148.033 41.3929 143.493 49.9849 147.105C58.0942 150.51 61.69 156.702 60.7725 165.679C60.767 165.732 60.7739 165.785 60.7928 165.834C60.8116 165.883 60.8418 165.928 60.8811 165.964C60.9204 166 60.9676 166.026 61.0191 166.042C61.0707 166.057 61.1251 166.06 61.1783 166.052C64.2568 165.545 67.3366 165.074 70.4177 164.638C74.6261 164.047 81.309 162.582 86.9304 162.299C87.0983 162.289 87.252 162.249 87.3915 162.178C87.6757 162.035 87.8204 161.959 87.8259 161.949C87.9482 161.782 88.0006 161.573 87.9728 161.362C87.9449 161.151 87.8388 160.954 87.6753 160.809C75.175 149.708 62.4814 138.836 49.5945 128.194C49.4627 128.085 49.3537 127.952 49.274 127.801C49.1942 127.65 49.1452 127.485 49.1299 127.315C49.1146 127.145 49.1332 126.974 49.1847 126.812C49.2362 126.649 49.3195 126.498 49.4299 126.368L67.8242 104.595C67.985 104.404 68.2144 104.284 68.4621 104.261C68.7098 104.238 68.9556 104.315 69.1457 104.473L75.3162 109.615C76.1351 110.294 76.1955 111.037 75.4972 111.845L64.8571 124.151C64.7602 124.263 64.6865 124.393 64.6404 124.534C64.5943 124.675 64.5767 124.824 64.5885 124.971C64.6003 125.119 64.6414 125.263 64.7094 125.395C64.7774 125.527 64.8709 125.643 64.9844 125.739L72.329 131.927C72.3931 131.981 72.4673 132.022 72.5472 132.048C72.6272 132.073 72.7115 132.083 72.7951 132.076C72.8788 132.069 72.9603 132.045 73.0349 132.007C73.1096 131.968 73.1759 131.916 73.2301 131.851L83.5062 119.723C84.1624 118.954 84.8751 118.898 85.644 119.554L91.2113 124.31C92.0393 125.019 92.1037 125.79 91.4046 126.623L81.1828 138.723C81.1292 138.787 81.0888 138.861 81.0639 138.94C81.0391 139.02 81.0302 139.104 81.0379 139.187C81.0457 139.27 81.0698 139.351 81.1089 139.425C81.148 139.498 81.2013 139.564 81.2658 139.617L88.8913 145.829C89.0711 145.976 89.301 146.047 89.5321 146.026C89.7632 146.006 89.9772 145.896 90.1286 145.72L100.69 133.282C101.468 132.371 102.268 132.353 103.09 133.229L104.896 135.158C104.976 135.244 105.079 135.308 105.192 135.343C105.306 135.377 105.427 135.382 105.543 135.355C106.035 135.241 106.191 134.896 106.014 134.321C100.898 118.016 95.6471 101.65 90.2615 85.2241C89.9858 84.3972 90.1876 83.7063 90.8669 83.1514L98.0295 77.3255C98.1528 77.2239 98.3039 77.1612 98.4642 77.1451C98.6245 77.1291 98.7869 77.1604 98.9311 77.2352C114.695 85.5723 130.431 93.9185 146.139 102.274C146.453 102.437 146.697 102.446 146.934 102.195C146.996 102.126 147.036 102.04 147.047 101.948C147.058 101.857 147.041 101.766 146.997 101.687L123.649 58.8501C123.596 58.7533 123.563 58.6471 123.551 58.5374C123.539 58.4278 123.549 58.3169 123.58 58.2111C123.612 58.1054 123.664 58.0069 123.733 57.9212C123.803 57.8356 123.888 57.7646 123.985 57.7121L132.701 52.9912C132.847 52.9119 133.007 52.8618 133.172 52.8441C133.337 52.8263 133.503 52.8411 133.662 52.8877C133.821 52.9343 133.969 53.0117 134.098 53.1155C134.226 53.2193 134.333 53.3474 134.412 53.4926L143.716 70.4922ZM109.851 108.59C109.894 108.71 109.965 108.818 110.059 108.904C110.152 108.991 110.265 109.054 110.388 109.087C110.511 109.12 110.64 109.124 110.765 109.097C110.889 109.069 111.005 109.013 111.103 108.931L119.302 102.007C119.398 101.924 119.473 101.819 119.521 101.7C119.568 101.582 119.586 101.454 119.573 101.327C119.56 101.2 119.517 101.079 119.447 100.972C119.377 100.866 119.283 100.778 119.172 100.715L105.922 93.3393C105.782 93.2598 105.621 93.225 105.46 93.2395C105.3 93.254 105.148 93.3171 105.024 93.4204C104.901 93.5236 104.811 93.6622 104.769 93.8175C104.726 93.9727 104.731 94.1374 104.785 94.2894L109.851 108.59ZM35.227 166.782L46.6129 173.675C46.6942 173.725 46.7919 173.741 46.8852 173.72C46.9785 173.699 47.0598 173.643 47.1118 173.563C50.3004 168.595 53.091 160.416 44.7771 158.436C39.5516 157.195 37.0553 161.524 34.8391 165.246C34.689 165.5 34.6455 165.804 34.7181 166.091C34.7907 166.379 34.9734 166.627 35.227 166.782Z" fill="white"/>
<path d="M425.637 107.436C425.47 107.307 425.352 107.125 425.304 106.921C425.256 106.717 425.28 106.503 425.372 106.315C425.706 105.621 426.173 104.889 426.773 104.118C436.89 91.1667 446.988 78.1821 457.067 65.1639C457.657 64.3977 458.338 64.3098 459.109 64.9002L480.952 81.7438C481.886 82.4616 481.982 83.2771 481.239 84.1903L476.577 89.9283C476.395 90.1547 476.131 90.3006 475.842 90.3346C475.553 90.3687 475.263 90.2882 475.033 90.1104L462.198 80.2285C462.055 80.1182 461.891 80.0375 461.716 79.9908C461.541 79.9442 461.359 79.9327 461.18 79.9568C461.001 79.981 460.828 80.0404 460.672 80.1317C460.516 80.223 460.379 80.3443 460.27 80.4886L454.727 87.8938C454.593 88.0734 454.535 88.2985 454.566 88.5204C454.597 88.7424 454.714 88.9433 454.892 89.0797L467.267 98.6106C468.058 99.2169 468.142 99.9102 467.521 100.69L462.79 106.655C462.584 106.913 462.284 107.081 461.956 107.122C461.627 107.163 461.296 107.074 461.031 106.875L448.469 97.2613C448.385 97.1977 448.29 97.1512 448.188 97.1245C448.086 97.0977 447.981 97.0911 447.877 97.1052C447.773 97.1192 447.673 97.1536 447.583 97.2064C447.493 97.2591 447.415 97.3292 447.352 97.4126L441.066 105.599C441.037 105.637 441.015 105.68 441.003 105.726C440.991 105.772 440.988 105.821 440.995 105.869C441.001 105.916 441.018 105.962 441.043 106.004C441.068 106.046 441.101 106.083 441.14 106.112L454.323 116.272C455.341 117.054 455.447 117.943 454.641 118.941L450.145 124.487C449.914 124.769 449.583 124.951 449.22 124.993C448.858 125.036 448.493 124.937 448.203 124.716L425.637 107.436Z" fill="white"/>
<path d="M485.503 114.285C484.53 114.03 464.119 133.372 461.708 135.671C460.937 136.396 460.199 136.365 459.496 135.579L453.413 128.796C453.177 128.532 453.055 128.186 453.073 127.833C453.091 127.48 453.248 127.149 453.509 126.911L491.239 92.412C491.994 91.7176 492.721 91.7455 493.421 92.4958L499.515 98.9673C500.244 99.744 500.471 100.648 500.197 101.679L490.71 137.651C490.329 139.09 490.692 139.31 491.798 138.314L514.795 117.523C514.995 117.343 515.254 117.244 515.523 117.245C515.792 117.246 516.051 117.347 516.249 117.528C518.768 119.829 521.04 122.35 523.066 125.091C523.16 125.219 523.207 125.376 523.199 125.534C523.191 125.692 523.128 125.842 523.021 125.958C521.192 127.972 518.63 129.794 517.049 131.262C506.175 141.318 495.383 151.284 484.673 161.158C484.544 161.278 484.391 161.37 484.226 161.43C484.06 161.491 483.884 161.517 483.708 161.509C483.532 161.501 483.359 161.458 483.2 161.382C483.041 161.307 482.898 161.2 482.78 161.069L476.857 154.52C475.943 153.508 475.664 152.344 476.02 151.026L485.833 114.852C485.851 114.794 485.856 114.734 485.849 114.674C485.841 114.614 485.822 114.555 485.791 114.502C485.76 114.449 485.719 114.403 485.669 114.365C485.62 114.328 485.563 114.301 485.503 114.285Z" fill="white"/>
<path d="M511.294 201.216C506.495 198.666 502.051 193.775 499.296 189.163C486.752 168.114 503.538 140.079 528.935 146.707C542.321 150.197 550.952 162.049 552.385 175.538C552.571 177.321 551.77 178.237 549.982 178.286L542.444 178.488C542.12 178.494 541.806 178.377 541.566 178.161C541.326 177.944 541.178 177.645 541.153 177.323C540.347 166.818 531.788 156.606 520.362 158.491C513.553 159.616 508.702 164.883 507.664 171.722C506.27 180.887 510.68 186.523 517.831 191.935C517.999 192.064 518.114 192.251 518.154 192.459C518.193 192.667 518.153 192.882 518.043 193.061L513.292 200.677C512.792 201.477 512.126 201.657 511.294 201.216Z" fill="white"/>
<path d="M533.579 208.657L524.39 212.546C524.181 212.635 524.015 212.802 523.928 213.012C523.841 213.223 523.84 213.46 523.924 213.672L530.202 229.477C530.256 229.612 530.281 229.757 530.278 229.902C530.274 230.047 530.241 230.19 530.181 230.322C530.121 230.455 530.035 230.573 529.928 230.672C529.821 230.77 529.695 230.845 529.559 230.894L522.004 233.554C521.659 233.677 521.279 233.662 520.945 233.511C520.611 233.36 520.348 233.086 520.212 232.745L509.666 206.398C509.623 206.292 509.616 206.175 509.646 206.065C509.676 205.954 509.741 205.857 509.832 205.787C510.739 205.088 512.009 204.424 513.64 203.796C528.582 198.038 543.467 192.079 558.296 185.916C558.454 185.851 558.623 185.818 558.793 185.819C558.964 185.819 559.133 185.854 559.29 185.92C559.448 185.986 559.591 186.083 559.712 186.205C559.832 186.327 559.927 186.472 559.992 186.63L570.596 213.064C570.659 213.22 570.69 213.388 570.687 213.556C570.684 213.724 570.647 213.89 570.58 214.043C570.512 214.197 570.414 214.334 570.292 214.448C570.17 214.562 570.026 214.649 569.869 214.706L562.173 217.49C561.938 217.576 561.678 217.566 561.449 217.463C561.219 217.36 561.038 217.171 560.944 216.937L554.646 201.04C554.589 200.896 554.478 200.78 554.336 200.718C554.194 200.656 554.033 200.653 553.889 200.709L544.653 204.193C544.521 204.244 544.4 204.32 544.297 204.419C544.195 204.517 544.113 204.635 544.057 204.765C544 204.896 543.971 205.037 543.969 205.18C543.968 205.322 543.995 205.464 544.048 205.596L549.967 219.904C550.426 221.011 550.092 221.771 548.966 222.184L541.446 224.967C541.283 225.028 541.102 225.023 540.942 224.954C540.783 224.884 540.657 224.755 540.591 224.594L534.232 208.931C534.207 208.869 534.171 208.814 534.125 208.766C534.079 208.719 534.024 208.682 533.963 208.656C533.902 208.631 533.837 208.618 533.771 208.618C533.705 208.618 533.639 208.631 533.579 208.657Z" fill="white"/>
<path d="M33.9454 200.643C34.1438 201.502 34.5041 201.579 35.0263 200.871C38.2917 196.467 42.2094 194.531 46.7796 195.061C54.5302 195.948 60.9761 202.143 60.5435 210.389C60.4358 212.456 59.5592 215.682 57.9138 220.066C55.8546 225.542 53.7475 230.861 51.5926 236.025C51.4883 236.277 51.288 236.479 51.035 236.585C50.7821 236.692 50.4966 236.695 50.2403 236.594L1.48295 217.326C1.3526 217.275 1.24734 217.175 1.18934 217.046C1.13134 216.918 1.12511 216.771 1.17198 216.637C3.19852 211.079 5.42726 205.545 7.85816 200.036C10.5369 193.97 14.7792 189.573 21.9888 190.472C28.5742 191.29 32.5598 194.681 33.9454 200.643ZM14.7019 209.884L24.5538 213.609C24.672 213.653 24.8023 213.653 24.9203 213.608C25.0382 213.563 25.1357 213.477 25.1943 213.365C31.1482 201.817 16.645 197.412 14.2509 209.061C14.2159 209.23 14.2421 209.405 14.3248 209.556C14.4074 209.707 14.5411 209.823 14.7019 209.884ZM36.1056 218.368L46.5406 222.402C46.6246 222.435 46.7146 222.451 46.8052 222.448C46.8957 222.446 46.9849 222.424 47.0674 222.386C47.1498 222.348 47.2239 222.293 47.285 222.225C47.3461 222.157 47.393 222.078 47.4229 221.991C48.4407 219.011 50.4131 215.075 49.9111 212.225C49.4028 209.337 47.121 207.308 44.2171 206.956C39.0159 206.325 36.4486 212.471 35.2174 216.547C34.953 217.431 35.2491 218.038 36.1056 218.368Z" fill="white"/>
<path d="M256.696 284.252C257.781 280.655 259.057 277.132 260.523 273.683C262.836 268.229 262.667 262.941 260.013 257.817C259.374 257.097 258.689 256.757 257.959 256.797C257.826 256.804 257.698 256.848 257.589 256.923C257.48 256.999 257.395 257.103 257.342 257.224L254.063 264.688C254.014 264.795 253.933 264.883 253.832 264.94C253.731 264.997 253.614 265.021 253.5 265.008C249.492 264.546 245.657 265.102 241.994 266.674C241.335 266.958 241.299 267.306 241.888 267.717L242.116 267.877C242.224 267.955 242.351 268.003 242.483 268.015C242.616 268.027 242.749 268.003 242.869 267.945C246.025 266.428 249.348 265.908 252.838 266.385C252.882 266.391 252.925 266.407 252.962 266.432C253 266.457 253.031 266.49 253.053 266.53C253.075 266.569 253.088 266.613 253.09 266.658C253.092 266.702 253.084 266.747 253.066 266.789L243.653 288.643L239.346 287.988C239.301 287.981 239.254 287.984 239.21 287.998C239.166 288.012 239.125 288.035 239.092 288.067C239.058 288.098 239.032 288.137 239.015 288.18C238.999 288.223 238.992 288.269 238.996 288.315L239.772 298.748C236.977 308.493 234.674 318.36 232.863 328.348C232.833 328.526 232.764 328.691 232.658 328.843L232.429 329.163C224.105 329.639 216.429 327.235 209.403 321.949C205.88 319.293 197.875 313.198 197.046 310.139C203.828 294.555 207.493 278.258 208.041 261.249C208.045 261.14 208.013 261.034 207.949 260.947C207.886 260.859 207.795 260.797 207.691 260.769C196.303 257.69 192.272 250.192 195.6 238.276C197.715 230.69 204.99 233.315 209.624 236.283C209.658 236.305 209.697 236.318 209.738 236.321C209.779 236.324 209.82 236.316 209.856 236.299C209.893 236.281 209.925 236.254 209.948 236.221C209.971 236.187 209.986 236.148 209.989 236.108C212.074 218.043 222.59 199.24 243.303 199.423C255.029 199.529 263.049 208.782 266.032 219.367C266.043 219.406 266.044 219.448 266.034 219.487C266.025 219.527 266.006 219.563 265.978 219.594C265.951 219.624 265.917 219.647 265.878 219.661C265.84 219.674 265.799 219.678 265.758 219.671C264.505 219.453 263.298 219.174 262.136 218.834C259.58 218.089 257.114 221.452 258.225 223.856C259.359 226.299 265.469 227.106 267.821 227.197C267.926 227.201 268.026 227.242 268.105 227.313C268.184 227.383 268.237 227.48 268.254 227.585C270.887 245.117 269.883 270.578 256.696 284.252ZM236.029 220.999C235.918 220.588 235.726 220.203 235.466 219.867C235.206 219.53 234.882 219.247 234.512 219.036C234.143 218.824 233.735 218.688 233.313 218.634C232.891 218.579 232.462 218.609 232.051 218.721L225.281 220.56C224.87 220.672 224.485 220.863 224.148 221.124C223.812 221.384 223.529 221.708 223.318 222.077C223.106 222.447 222.97 222.854 222.915 223.276C222.861 223.699 222.891 224.127 223.003 224.538L223.122 224.979C223.234 225.39 223.425 225.774 223.686 226.111C223.946 226.448 224.27 226.73 224.64 226.942C225.009 227.154 225.416 227.29 225.839 227.344C226.261 227.398 226.69 227.369 227.1 227.257L233.871 225.418C234.282 225.306 234.666 225.115 235.003 224.854C235.34 224.594 235.622 224.27 235.834 223.901C236.045 223.531 236.182 223.124 236.236 222.701C236.29 222.279 236.261 221.85 236.149 221.44L236.029 220.999ZM234.461 235.499C234.461 234.593 234.101 233.724 233.46 233.083C232.82 232.442 231.951 232.082 231.044 232.082C230.138 232.082 229.269 232.442 228.629 233.083C227.988 233.724 227.628 234.593 227.628 235.499C227.628 236.405 227.988 237.274 228.629 237.915C229.269 238.555 230.138 238.915 231.044 238.915C231.951 238.915 232.82 238.555 233.46 237.915C234.101 237.274 234.461 236.405 234.461 235.499ZM264.45 235.742C264.45 234.834 264.089 233.963 263.447 233.321C262.805 232.679 261.934 232.318 261.025 232.318C260.117 232.318 259.246 232.679 258.604 233.321C257.962 233.963 257.601 234.834 257.601 235.742C257.601 236.65 257.962 237.521 258.604 238.164C259.246 238.806 260.117 239.166 261.025 239.166C261.934 239.166 262.805 238.806 263.447 238.164C264.089 237.521 264.45 236.65 264.45 235.742Z" fill="#A37892"/>
<path d="M232.051 218.721L225.281 220.56C223.553 221.03 222.533 222.811 223.002 224.538L223.122 224.979C223.592 226.707 225.373 227.727 227.1 227.257L233.871 225.418C235.598 224.948 236.618 223.167 236.149 221.44L236.029 220.999C235.56 219.271 233.779 218.251 232.051 218.721Z" fill="#230A0E"/>
<path d="M231.044 238.916C232.931 238.916 234.461 237.386 234.461 235.499C234.461 233.612 232.931 232.083 231.044 232.083C229.157 232.083 227.628 233.612 227.628 235.499C227.628 237.386 229.157 238.916 231.044 238.916Z" fill="#230A0E"/>
<path d="M261.025 239.167C262.917 239.167 264.45 237.634 264.45 235.743C264.45 233.852 262.917 232.319 261.025 232.319C259.134 232.319 257.601 233.852 257.601 235.743C257.601 237.634 259.134 239.167 261.025 239.167Z" fill="#230A0E"/>
<path d="M260.013 257.817C262.666 262.941 262.836 268.23 260.523 273.683C259.057 277.133 257.781 280.656 256.696 284.252C254.763 287.144 253.713 292.44 252.845 295.872C251.742 296.884 249.269 299.03 248.744 298.718C248.643 298.658 248.564 298.569 248.519 298.461C248.473 298.354 248.464 298.236 248.493 298.124C250.326 290.85 252.548 283.872 254.793 276.719C256.736 270.535 258.476 264.235 260.013 257.817Z" fill="#005D6F"/>
<path d="M192.922 281.414C194.961 290.626 195.702 299.948 195.144 309.379C195.108 309.952 195.308 310.406 195.745 310.741C163.313 322.231 141.132 345.668 127.291 376.721C127.286 375.575 127.572 374.522 128.151 373.564C128.279 373.356 128.34 373.111 128.326 372.863C128.234 370.794 129.467 368.869 129.954 366.989C130.477 365.006 130.743 363.993 130.753 363.953C141.383 331.575 159.547 302.073 188.729 283.347C189.677 282.743 191.075 282.099 192.922 281.414Z" fill="white"/>
<path d="M243.653 288.642L239.773 298.748L238.996 288.315C238.992 288.269 238.999 288.223 239.015 288.18C239.032 288.137 239.058 288.098 239.092 288.066C239.126 288.035 239.166 288.011 239.21 287.998C239.254 287.984 239.301 287.981 239.346 287.988L243.653 288.642Z" fill="#230A0E"/>
<path d="M270.157 290.355C272.12 292.466 273.654 294.865 274.76 297.554L272.698 296.26C272.493 296.128 272.243 296.077 271.998 296.116C266.793 296.983 262.296 300.537 257.89 303.284C257.632 303.446 257.5 303.375 257.495 303.071C257.495 302.827 265.568 295.994 265.888 295.781C267.202 294.883 268.746 293.972 270.522 293.049C270.64 292.988 270.732 292.886 270.782 292.762C270.832 292.638 270.837 292.5 270.796 292.372L270.157 290.355Z" fill="#005D6F"/>
<path d="M276.998 301.998L278.847 307.096C273.063 306.434 268.498 308.298 263.871 309.166C263.845 309.17 263.818 309.169 263.792 309.162C263.766 309.154 263.742 309.142 263.722 309.124C263.702 309.107 263.685 309.085 263.674 309.061C263.663 309.036 263.658 309.01 263.658 308.983V308.785C263.658 308.739 263.671 308.695 263.696 308.657C263.72 308.619 263.755 308.59 263.795 308.572C266.664 307.309 268.848 305.673 271.899 304.577C273.7 303.928 275.4 303.068 276.998 301.998Z" fill="#005D6F"/>
<path d="M197.046 310.14C197.875 313.199 205.88 319.294 209.403 321.949C216.429 327.235 224.105 329.64 232.429 329.163L229.386 344.511C229.346 344.705 229.259 344.886 229.133 345.036C229.006 345.186 228.845 345.301 228.663 345.371L125.137 386.279C123.833 386.796 123.44 386.403 123.958 385.1L127.291 376.722C141.132 345.668 163.313 322.231 195.745 310.741L197.046 310.14Z" fill="#FE570B"/>
<path d="M271.998 320.983H271.777C271.604 320.983 271.434 321.033 271.29 321.127L266.321 324.437C265.677 324.843 265.477 325.467 265.72 326.309C264.663 323.014 268.505 320.861 270.316 318.921C270.94 318.251 271.651 317.68 272.447 317.208C272.491 317.182 272.54 317.165 272.591 317.158C272.642 317.152 272.693 317.156 272.743 317.17C272.792 317.184 272.838 317.209 272.877 317.241C272.917 317.274 272.949 317.315 272.972 317.361C273.155 317.703 271.275 319.088 271.998 320.983Z" fill="#005D6F"/>
<path d="M266.321 324.438C266.042 324.869 266.096 325.252 266.481 325.587C277.515 335.19 286.605 346.388 293.753 359.182C310.212 388.645 319.534 421.252 323.886 454.603C323.916 454.839 323.865 455.076 323.742 455.273L322.821 456.78C321.461 457.454 320.051 458.023 318.59 458.484C303.473 463.238 288.016 466.363 272.219 467.859C269.748 468.092 263.341 468.123 252.997 467.95C217.431 467.372 182.793 456.658 152.554 437.992C148.698 435.608 145.198 433.193 142.053 430.748C158.646 421.769 174.973 412.328 191.034 402.426C192.404 401.597 194.078 401.041 195.295 400.333C213.35 389.787 231.389 379.217 249.413 368.625C254.778 365.536 258.255 363.702 260.766 359.357C266.435 349.571 266.633 337.343 265.72 326.309C265.477 325.467 265.677 324.843 266.321 324.438Z" fill="#FE570B"/>
<path d="M249.414 368.625C231.39 379.217 213.35 389.787 195.296 400.333C194.078 401.041 192.404 401.597 191.034 402.426C192.714 401.051 194.479 399.798 196.331 398.667C205.211 393.249 212.714 386.568 221.913 380.709C228.457 376.547 234.096 371.677 241.37 368.29C244.211 366.966 246.892 367.078 249.414 368.625Z" fill="#005D6F"/>
</svg>
