<svg xmlns="http://www.w3.org/2000/svg" enable-background="new 0 0 512 512" viewBox="0 0 512 512" id="willpower"><path fill="#ffcd7e" d="M356.98,200.736v45.93c0,6.881-2.72,13.443-7.601,18.324l-35.207,35.127
			c-9.283,9.362-14.483,21.925-14.483,35.126v168.756h-98.261V337.243c0-12.242-4.561-24.085-12.722-33.206
			c-8.161-9.122-12.643-20.886-12.643-33.127v-104.98l111.383,30.806c-5.12-4.161-9.121-9.603-11.602-15.683
			c-2.961-7.201,2.24-15.124,10.002-15.124h36.328C341.377,165.929,356.98,181.532,356.98,200.736z"></path><path fill="#ffcd7e" d="M217.231 198.678v-53.001c0-11.374-9.22-20.594-20.595-20.594-11.374 0-20.594 9.221-20.594 20.595v53.001c0 11.295 9.157 20.452 20.452 20.452h.285C208.076 219.13 217.231 209.973 217.231 198.678zM258.439 198.678v-53.001c0-11.374-9.22-20.594-20.594-20.594-11.374 0-20.595 9.221-20.595 20.595v53.001c0 11.295 9.157 20.452 20.452 20.452h.285C249.282 219.13 258.439 209.973 258.439 198.678z"></path><path fill="#ffcd7e" d="M299.623,198.678v-53.001c0-11.374-9.22-20.594-20.594-20.594s-20.595,9.221-20.595,20.595v53.001
			c0,11.295,9.157,20.452,20.452,20.452h0.285C290.466,219.13,299.623,209.973,299.623,198.678z"></path><path fill="#ffcd7e" d="M340.805,145.652v40.188h-41.185v-40.188c0-11.366,9.197-20.563,20.563-20.563
			C331.608,125.088,340.805,134.286,340.805,145.652z"></path><path fill="#ffcd7e" d="M319.95,205.7h-7.323c-16.616,0-30.853-10.187-36.804-24.657
			c-2.96-7.197,2.262-15.122,10.044-15.122h36.309c19.218,0,34.799,15.58,34.799,34.799v45.931"></path><polyline fill="#fff" points="117.945 230.997 117.949 63.463 148.643 63.464 96.634 7.896 44.622 63.46 75.315 63.461 75.313 167.989"></polyline><polyline fill="#43c3ff" points="436.68 230.997 436.684 63.463 467.378 63.464 415.369 7.896 363.357 63.46 394.05 63.461 394.047 167.989"></polyline><polyline fill="#fff" points="436.68 503.999 436.684 391.797 467.378 391.798 415.369 336.229 363.357 391.794 394.05 391.795 394.047 474.19"></polyline><polyline fill="#43c3ff" points="117.945 503.999 117.949 391.797 148.643 391.798 96.634 336.229 44.622 391.794 75.315 391.795 75.313 474.19"></polyline><path fill="#33226e" d="M299.884,257.635c0-4.422-3.583-8.001-8.001-8.001c-27.955,0-50.698,22.746-50.698,50.705
				c0,4.422,3.583,8.001,8.001,8.001c4.419,0,8.001-3.579,8.001-8.001c0-19.136,15.566-34.703,34.695-34.703
				C296.301,265.636,299.884,262.057,299.884,257.635z"></path><path fill="#33226e" d="M364.975 200.717c0-13.483-6.392-25.384-16.168-33.235v-21.831c0-15.746-12.839-28.56-28.623-28.56-8.088 0-15.365 3.412-20.566 8.834-5.208-5.426-12.492-8.842-20.59-8.842-8.099 0-15.385 3.417-20.592 8.844-5.208-5.427-12.493-8.844-20.592-8.844-8.106 0-15.396 3.423-20.604 8.858-5.208-5.435-12.497-8.858-20.604-8.858-15.768 0-28.596 12.823-28.596 28.592 0 44.656 0 81.343 0 125.229 0 14.237 5.232 27.912 14.734 38.5 6.864 7.665 10.647 17.55 10.647 27.826v166.769c0 4.422 3.583 8.001 8.001 8.001s8.001-3.579 8.001-8.001V337.229c0-14.222-5.232-27.897-14.734-38.508-6.864-7.65-10.647-17.535-10.647-27.818V224.08c3.846 1.889 8.127 3.049 12.737 3.049 8.051 0 15.295-3.394 20.477-8.787 5.216 5.394 12.532 8.787 20.732 8.787 8.044 0 15.284-3.388 20.464-8.773 5.215 5.385 12.526 8.773 20.716 8.773 10.535 0 19.6-5.826 24.478-14.369.332.063.65.168.985.224v19.911c0 4.422 3.583 8.001 8.001 8.001 4.418 0 8.001-3.579 8.001-8.001v-19.331c4.082-.363 7.318-3.683 7.318-7.863 0-4.422-3.583-8.001-8.001-8.001-1.699-.413-27.02 3.895-36.726-19.707-.809-1.964.588-4.071 2.645-4.071h36.308c14.776 0 26.794 12.018 26.794 26.794v45.932c0 4.774-1.86 9.267-5.236 12.643l-35.187 35.187c-10.881 10.885-16.871 25.349-16.871 40.735v168.785c0 4.422 3.583 8.001 8.001 8.001 4.419 0 8.001-3.579 8.001-8.001V335.214c0-11.112 4.325-21.56 12.182-29.42l35.187-35.187c6.4-6.4 9.924-14.909 9.924-23.958v-45.932H364.975zM209.228 198.678c0 6.86-5.583 12.448-12.734 12.448-6.864 0-12.452-5.587-12.452-12.448 0-.911 0-55.243 0-53.003 0-6.939 5.65-12.589 12.592-12.589 6.942 0 12.592 5.65 12.592 12.589v53.003H209.228zM237.699 211.125c-6.864 0-12.448-5.587-12.448-12.448v-53.003c0-6.939 5.65-12.589 12.592-12.589 6.936 0 12.58 5.64 12.59 12.569 0 .007-.002.012-.002.02v53.003c0 .007.002.011.002.02C250.423 205.548 244.846 211.125 237.699 211.125zM268.425 184.081c4.057 9.871 11.173 17.724 19.927 22.894-2.314 2.528-5.651 4.15-9.468 4.15-6.858 0-12.435-5.577-12.445-12.429 0-.007.002-.012.002-.02v-53.003c0-.007-.002-.012-.002-.02.01-6.929 5.655-12.569 12.59-12.569 6.942 0 12.592 5.65 12.592 12.589v12.245h-5.752C272.411 157.919 263.291 171.624 268.425 184.081zM307.624 157.919v-12.245-.024c0-6.924 5.634-12.557 12.561-12.557 6.958 0 12.62 5.634 12.62 12.557v13.765c-3.418-.882-6.938-1.498-10.627-1.498h-14.554V157.919zM102.476 2.427c-3.025-3.235-8.658-3.235-11.682 0L38.783 57.993c-4.774 5.099-1.151 13.472 5.841 13.472h22.688v96.528c0 4.422 3.583 8.001 8.001 8.001 4.419 0 8.001-3.579 8.001-8.001V63.462c0-4.422-3.583-8.001-8.001-8.001H63.073L96.635 19.61l33.558 35.851h-12.245c-4.419 0-8.001 3.579-8.001 8.001l-.004 167.534c0 4.422 3.583 8.001 8.001 8.001s8.001-3.579 8.001-8.001l.004-159.533h22.692c6.984 0 10.62-8.366 5.841-13.472L102.476 2.427zM363.358 71.463h22.688v96.528c0 4.422 3.583 8.001 8.001 8.001s8.001-3.579 8.001-8.001V63.462c0-4.422-3.583-8.001-8.001-8.001h-12.241l33.562-35.851 33.558 35.851h-12.241c-4.419 0-8.001 3.579-8.001 8.001l-.004 167.534c0 4.422 3.583 8.001 8.001 8.001 4.419 0 8.001-3.579 8.001-8.001l.004-159.533h22.688c6.984 0 10.62-8.366 5.841-13.472L421.21 2.426c-3.025-3.235-8.658-3.235-11.682 0l-52.011 55.566C352.742 63.092 356.365 71.463 363.358 71.463zM421.21 330.759c-3.025-3.235-8.658-3.235-11.682 0l-52.011 55.566c-4.774 5.099-1.151 13.472 5.841 13.472h22.688v74.39c0 4.422 3.583 8.001 8.001 8.001 4.418 0 8.001-3.579 8.001-8.001v-82.392c0-4.422-3.583-8.001-8.001-8.001h-12.241l33.562-35.851 33.558 35.851h-12.241c-4.419 0-8.001 3.579-8.001 8.001l-.004 112.203c0 4.422 3.583 8.001 8.001 8.001 4.419 0 8.001-3.579 8.001-8.001l.004-104.202h22.688c6.984 0 10.62-8.366 5.841-13.472L421.21 330.759zM102.476 330.759c-3.025-3.235-8.658-3.235-11.682 0l-52.011 55.566c-4.774 5.099-1.151 13.472 5.841 13.472h22.688v74.39c0 4.422 3.583 8.001 8.001 8.001 4.419 0 8.001-3.579 8.001-8.001v-82.392c0-4.422-3.583-8.001-8.001-8.001H63.073l33.562-35.851 33.558 35.851h-12.245c-4.419 0-8.001 3.579-8.001 8.001l-.004 112.203c0 4.422 3.583 8.001 8.001 8.001s8.001-3.579 8.001-8.001l.004-104.202h22.692c6.984 0 10.62-8.366 5.841-13.472L102.476 330.759z"></path></svg>